<?xml version="1.0" encoding="UTF-8"?>
<svg id="_图层_1" data-name="图层_1" xmlns="http://www.w3.org/2000/svg" version="1.1" viewBox="0 0 1024 1024">
  <!-- Generator: Adobe Illustrator 29.8.1, SVG Export Plug-In . SVG Version: 2.1.1 Build 2)  -->
  <defs>
    <style>
      .st0 {
        fill: #bebebe;
      }
    </style>
  </defs>
  <path class="st0" d="M561.12,608.75l23.71,23.71c.71.71,1.43,1.43,2.13,2.14.6.6,1.19,1.21,1.78,1.83,1.27,1.34,2.52,2.74,3.58,4.27,1.08,1.55,1.91,3.16,2.5,4.96.58,1.77.87,3.62.87,5.48s-.29,3.71-.87,5.48c-.59,1.8-1.42,3.41-2.5,4.96-1.06,1.53-2.3,2.92-3.58,4.27-.58.62-1.18,1.22-1.78,1.83-.71.72-1.42,1.43-2.13,2.14l-23.77,23.77,23.77,23.77c.71.71,1.43,1.43,2.13,2.14.6.6,1.19,1.21,1.78,1.83,1.27,1.34,2.52,2.74,3.58,4.27,1.08,1.55,1.91,3.16,2.5,4.96.58,1.77.87,3.62.87,5.48s-.29,3.71-.87,5.48c-.59,1.8-1.42,3.41-2.5,4.96-1.06,1.53-2.3,2.92-3.58,4.27-.58.62-1.18,1.22-1.78,1.83-.71.72-1.42,1.43-2.13,2.14l-23.77,23.77,25.76,25.76c.34.34.68.68,1.02,1.02.29.29.57.58.86.87.62.65,1.25,1.32,1.86,2.09.62.78,1.2,1.62,1.77,2.59.56.96,1.07,1.99,1.51,3.06.44,1.07.81,2.16,1.09,3.23.29,1.09.47,2.09.58,3.09.11.98.15,1.9.16,2.8,0,.41.01.82.01,1.22,0,.48,0,.96,0,1.44v5.66c0,.48,0,.96,0,1.44,0,.4,0,.81-.01,1.22-.02.9-.05,1.82-.16,2.8-.11.99-.29,2-.58,3.09-.28,1.07-.65,2.16-1.09,3.23-.44,1.07-.95,2.1-1.51,3.06-.57.97-1.15,1.81-1.77,2.59-.61.77-1.24,1.45-1.86,2.09-.29.3-.57.59-.86.87-.34.34-.68.68-1.02,1.02l-56.14,56.14c-.71.71-1.43,1.43-2.14,2.14-.6.6-1.21,1.19-1.83,1.78-1.34,1.27-2.74,2.52-4.27,3.58-1.55,1.08-3.16,1.91-4.96,2.5-1.77.58-3.62.87-5.48.87s-3.71-.29-5.48-.87c-1.8-.59-3.41-1.42-4.96-2.5-1.53-1.06-2.92-2.3-4.27-3.58-.62-.58-1.22-1.18-1.83-1.78-.72-.71-1.43-1.42-2.14-2.14l-23.02-23.02c-.71-.71-1.43-1.43-2.14-2.15-.6-.61-1.2-1.22-1.8-1.84-1.31-1.36-2.63-2.79-3.92-4.41-1.31-1.65-2.53-3.41-3.73-5.46-1.17-2.02-2.24-4.19-3.18-6.44-.93-2.25-1.71-4.54-2.31-6.8-.61-2.29-.99-4.41-1.23-6.5-.23-2.06-.31-4.01-.34-5.89-.02-.87-.02-1.72-.03-2.57,0-1.01,0-2.02,0-3.03v-235.96c-60.77-24.05-103.76-83.34-103.76-152.67,0-90.65,73.48-164.13,164.13-164.13s164.13,73.48,164.13,164.13c0,73.54-48.36,135.77-115.01,156.65ZM519.5,361c-24.02,0-43.5,19.48-43.5,43.5s19.48,43.5,43.5,43.5,43.5-19.48,43.5-43.5-19.48-43.5-43.5-43.5Z"/>
</svg>